<?xml version="1.0" standalone="no"?>
<!DOCTYPE svg PUBLIC "-//W3C//DTD SVG 20010904//EN"
 "http://www.w3.org/TR/2001/REC-SVG-20010904/DTD/svg10.dtd">
<svg version="1.0" xmlns="http://www.w3.org/2000/svg"
 width="2083.000000pt" height="2083.000000pt" viewBox="0 0 2083.000000 2083.000000"
 preserveAspectRatio="xMidYMid meet">
<metadata>
Created by potrace 1.14, written by Peter Selinger 2001-2017
</metadata>
<g transform="translate(0.000000,2083.000000) scale(0.100000,-0.100000)"
fill="#000000" stroke="none">
<path d="M9447 18354 c-1 -1 -65 -5 -143 -8 -77 -4 -152 -8 -165 -11 -13 -2
-49 -6 -79 -9 -105 -12 -145 -17 -205 -28 -33 -5 -71 -12 -85 -14 -14 -3 -56
-11 -95 -20 -85 -19 -103 -23 -135 -29 -55 -10 -309 -89 -419 -130 -189 -70
-502 -216 -572 -266 -15 -10 -30 -19 -33 -19 -11 0 -193 -116 -309 -197 -210
-147 -379 -288 -404 -337 -58 -111 13 -204 226 -296 168 -73 431 -211 586
-309 53 -34 99 -61 100 -61 4 0 219 -148 275 -189 393 -289 769 -659 1026
-1011 72 -97 181 -258 200 -295 65 -124 117 -199 178 -260 59 -59 82 -74 135
-91 81 -27 136 -23 246 16 164 57 390 107 575 124 36 4 86 9 112 12 150 17
451 3 623 -28 33 -6 69 -12 80 -13 109 -15 367 -102 510 -172 555 -273 961
-774 1222 -1508 51 -143 84 -185 183 -233 47 -22 71 -27 156 -29 56 -1 116 2
135 7 19 6 72 17 119 25 47 8 94 17 105 19 11 2 47 7 80 12 33 4 62 8 65 9 3
1 48 5 100 9 52 5 106 10 120 12 37 5 361 5 390 0 14 -3 46 -7 72 -10 26 -3
68 -11 93 -17 97 -25 171 27 201 140 48 183 188 391 344 511 25 19 47 37 50
40 31 33 219 117 321 145 138 37 216 42 499 35 87 -2 115 0 190 15 14 3 36 7
50 10 50 9 155 47 224 80 268 129 451 351 539 656 14 46 28 102 31 124 3 22 8
56 11 75 3 19 8 51 10 70 6 44 6 365 0 405 -2 17 -7 64 -11 105 -3 41 -15 109
-26 150 -11 41 -21 82 -23 90 -2 8 -19 58 -38 110 -244 669 -740 1265 -1372
1650 -102 62 -297 163 -395 205 -47 20 -98 43 -115 50 -135 62 -569 194 -725
220 -19 3 -66 12 -105 20 -62 13 -94 18 -170 29 -11 2 -45 6 -75 10 -30 4 -66
9 -80 11 -237 40 -894 50 -1235 20 -150 -14 -284 -26 -315 -30 -19 -3 -57 -7
-85 -10 -27 -4 -61 -8 -75 -10 -14 -2 -61 -9 -105 -15 -126 -18 -132 -19 -182
-39 -206 -80 -402 -52 -541 78 -42 39 -76 59 -155 90 -102 39 -138 53 -147 56
-3 1 -43 14 -90 29 -47 15 -110 34 -140 42 -110 30 -208 55 -226 58 -11 2 -64
13 -119 25 -104 21 -116 23 -225 40 -82 12 -129 19 -205 27 -33 3 -73 8 -90
10 -53 7 -463 22 -468 18z"/>
<path d="M5697 16814 c-1 -2 -38 -5 -81 -8 -44 -3 -105 -10 -135 -15 -31 -6
-72 -12 -91 -15 -198 -29 -535 -147 -810 -285 -545 -274 -1012 -636 -1379
-1071 -93 -111 -91 -108 -161 -205 -36 -49 -67 -92 -70 -95 -30 -27 -199 -315
-276 -470 -45 -92 -152 -337 -159 -365 -1 -5 -5 -17 -8 -25 -21 -52 -79 -240
-81 -265 -13 -120 -33 -171 -95 -248 -32 -40 -131 -127 -144 -127 -16 0 -195
-129 -269 -194 -409 -359 -711 -892 -865 -1525 -13 -57 -26 -113 -28 -123 -2
-11 -6 -27 -9 -36 -3 -9 -8 -39 -12 -67 -3 -27 -8 -53 -10 -56 -4 -7 -11 -48
-19 -118 -4 -30 -8 -61 -10 -70 -1 -9 -6 -47 -10 -86 -4 -38 -9 -83 -11 -100
-24 -189 -23 -777 1 -1035 2 -25 7 -72 10 -105 11 -116 48 -154 137 -141 46 7
66 18 258 140 129 81 499 266 533 266 7 0 17 4 22 9 12 12 380 135 450 151 28
7 57 13 65 16 48 12 304 63 345 68 28 4 70 9 95 12 25 3 56 7 70 9 165 24 652
24 794 0 12 -2 43 -6 70 -9 253 -29 560 -105 836 -208 58 -21 110 -40 115 -42
6 -1 26 -9 45 -18 19 -8 64 -28 100 -43 81 -34 273 -131 360 -180 36 -21 79
-45 96 -55 172 -99 504 -331 657 -459 12 -11 44 -38 70 -60 66 -56 120 -82
182 -88 68 -7 110 15 201 104 233 228 657 501 1014 652 30 13 69 29 85 36 67
30 325 116 424 142 178 46 342 75 581 102 80 9 554 7 630 -3 168 -22 219 -30
330 -54 97 -20 155 -26 255 -27 113 0 238 10 255 20 3 2 21 6 40 9 101 16 349
94 465 145 11 5 45 19 75 31 192 78 492 241 695 378 586 397 936 874 1061
1447 23 102 32 242 29 422 -1 110 -5 205 -8 210 -3 4 -8 28 -11 53 -7 50 -7
54 -30 160 -34 159 -49 202 -115 315 -166 284 -475 544 -791 665 -30 11 -64
25 -75 30 -54 25 -292 83 -391 95 -27 3 -58 8 -69 10 -31 6 -232 18 -310 18
-85 0 -314 -12 -335 -18 -8 -2 -39 -6 -69 -10 -65 -6 -175 -24 -258 -41 -16
-3 -41 -7 -58 -10 -86 -15 -284 -69 -325 -90 -165 -83 -333 -69 -440 36 -18
17 -80 106 -80 114 0 15 -254 417 -291 460 -6 6 -44 58 -86 116 -42 58 -79
107 -82 110 -3 3 -26 31 -49 63 -206 277 -572 656 -867 898 -391 321 -798 544
-1205 660 -105 30 -210 53 -285 64 -22 4 -47 8 -55 10 -44 12 -424 28 -433 19z"/>
<path d="M17573 15258 c-54 -14 -71 -66 -77 -238 -7 -167 -8 -174 -36 -295
-98 -422 -351 -783 -715 -1020 -189 -124 -436 -231 -550 -240 -38 -3 -80 -7
-91 -9 -12 -3 -38 -7 -58 -10 -119 -19 -269 -77 -368 -143 -216 -142 -289
-399 -149 -521 39 -34 147 -82 185 -82 46 0 265 -122 411 -228 131 -96 214
-169 360 -317 309 -313 548 -701 712 -1155 19 -52 36 -102 38 -110 2 -8 18
-62 34 -120 75 -255 121 -517 119 -666 -2 -96 0 -113 19 -143 43 -68 69 -76
278 -86 121 -6 177 -10 250 -20 22 -3 63 -8 90 -11 28 -3 70 -9 95 -14 25 -5
59 -11 75 -14 115 -17 322 -68 453 -112 276 -92 460 -201 627 -370 99 -100
145 -134 184 -134 36 0 87 39 114 88 22 42 69 169 66 182 0 3 6 23 14 45 23
59 111 418 122 495 1 8 5 29 8 45 4 17 9 46 12 65 3 19 10 60 15 90 5 30 12
75 15 100 3 25 8 56 10 70 2 14 6 50 10 80 3 30 7 71 10 90 23 183 29 321 29
640 1 268 -7 477 -19 540 -2 9 -6 54 -10 101 -4 46 -8 86 -10 89 -2 3 -6 30
-10 60 -3 30 -8 62 -10 70 -2 8 -7 35 -10 60 -12 81 -55 283 -86 400 -17 63
-32 122 -34 130 -39 161 -182 525 -294 750 -333 668 -796 1200 -1466 1685
-241 174 -294 201 -362 183z"/>
<path d="M14038 12605 c-1 -1 -66 -5 -143 -9 -138 -6 -211 -11 -290 -21 -22
-3 -62 -7 -90 -10 -146 -15 -205 -25 -227 -36 -10 -5 -18 -8 -18 -5 0 8 -135
-41 -189 -68 -72 -36 -118 -68 -177 -126 -77 -75 -113 -150 -140 -293 -65
-338 -309 -759 -625 -1077 -153 -153 -418 -352 -599 -448 -215 -115 -365 -181
-563 -248 -152 -52 -411 -122 -517 -140 -14 -2 -34 -6 -46 -9 -12 -3 -39 -7
-60 -10 -21 -4 -46 -8 -54 -10 -8 -2 -37 -7 -65 -10 -27 -4 -57 -8 -65 -10 -8
-2 -42 -7 -75 -11 -33 -3 -69 -8 -79 -10 -21 -4 -168 -12 -331 -19 -55 -2
-158 -6 -230 -10 -71 -3 -177 -8 -235 -10 -207 -9 -337 -15 -440 -20 -58 -3
-161 -8 -230 -10 -134 -5 -237 -13 -285 -20 -16 -3 -46 -7 -65 -9 -158 -18
-470 -107 -640 -183 -105 -47 -126 -58 -235 -119 -466 -264 -810 -692 -986
-1229 -26 -79 -54 -179 -64 -225 -2 -8 -8 -35 -14 -60 -5 -25 -12 -58 -15 -75
-3 -16 -8 -39 -10 -50 -13 -65 -31 -210 -41 -322 -16 -190 140 -635 331 -943
123 -200 263 -366 471 -557 67 -63 225 -181 330 -247 208 -132 610 -306 810
-351 10 -2 64 -15 121 -29 56 -14 115 -28 130 -31 15 -3 36 -7 47 -9 11 -2 43
-7 70 -11 28 -5 52 -9 55 -10 3 0 32 -5 65 -9 32 -4 68 -10 80 -12 124 -24
486 -24 636 1 13 2 47 6 74 10 157 18 454 85 520 115 11 5 45 19 76 30 86 31
200 97 276 158 160 129 255 127 441 -8 149 -108 344 -183 570 -220 164 -27
381 -29 542 -5 59 8 116 18 135 22 11 2 31 6 45 8 33 5 53 10 130 30 149 38
250 75 300 109 29 20 64 36 79 36 42 0 83 -54 97 -125 13 -72 70 -282 109
-405 100 -314 194 -547 341 -835 99 -195 113 -221 199 -360 452 -732 1029
-1220 1698 -1434 106 -34 273 -77 332 -85 22 -4 63 -10 90 -16 165 -30 456
-42 690 -27 61 4 119 9 130 11 11 2 52 7 90 11 106 10 306 51 342 70 46 23
103 93 103 126 0 67 -53 126 -164 185 -328 171 -608 432 -723 674 -38 79 -61
157 -70 230 -14 110 -6 347 15 430 5 19 10 40 11 45 19 100 96 253 167 333 97
108 194 163 375 212 107 29 339 114 464 170 33 15 80 35 105 46 229 97 808
417 935 517 6 4 53 37 105 74 52 37 138 101 190 142 687 544 1090 1163 1205
1851 5 29 11 82 21 160 18 155 5 549 -21 650 -2 8 -7 35 -10 60 -18 137 -94
259 -286 461 -48 51 -80 80 -185 169 -62 53 -221 152 -319 199 -164 80 -294
119 -535 160 -94 17 -440 6 -565 -17 -427 -78 -634 -178 -888 -430 -192 -189
-320 -454 -344 -715 -17 -180 -5 -316 44 -515 20 -84 24 -119 20 -185 -6 -98
-9 -113 -35 -163 -46 -91 -123 -116 -252 -83 -141 36 -253 143 -289 276 -32
120 -33 541 -1 737 10 63 12 71 31 166 44 221 146 470 262 645 173 259 458
482 692 544 148 39 253 111 292 200 16 37 22 136 11 181 -31 130 -87 324 -107
375 -5 11 -32 81 -61 155 -313 802 -865 1413 -1552 1718 -103 46 -349 133
-411 146 -192 41 -324 66 -377 71 -36 4 -74 9 -85 11 -11 3 -94 7 -185 10 -91
3 -170 7 -177 9 -6 2 -13 2 -15 0z"/>
<path d="M3167 10194 c-1 -1 -40 -5 -87 -8 -47 -3 -94 -8 -105 -10 -11 -2 -47
-7 -80 -11 -32 -4 -68 -9 -80 -11 -290 -55 -557 -137 -784 -240 -65 -30 -346
-170 -376 -187 -11 -7 -49 -32 -85 -57 -205 -141 -308 -278 -315 -422 -6 -109
14 -152 217 -468 43 -66 82 -126 88 -133 6 -6 36 -46 66 -87 356 -478 853
-899 1361 -1154 218 -109 544 -228 711 -261 9 -1 35 -8 57 -13 22 -6 54 -13
70 -16 204 -35 259 -43 352 -52 307 -27 621 -17 933 31 14 2 44 7 67 10 23 3
72 12 110 20 37 8 100 22 138 30 184 40 227 62 264 138 21 44 25 69 36 257 3
52 8 109 10 125 2 17 7 57 10 90 3 33 8 71 11 85 4 25 6 37 19 135 3 28 8 57
10 65 2 8 7 30 10 48 3 18 12 64 20 102 8 38 17 82 20 98 14 81 83 280 128
372 49 99 52 109 51 180 0 57 -6 85 -22 117 -51 98 -379 387 -622 548 -25 17
-47 33 -50 36 -12 14 -300 184 -403 238 -106 55 -305 146 -392 178 -95 35
-300 103 -319 107 -12 2 -58 13 -102 25 -88 23 -260 58 -314 65 -19 2 -57 7
-85 10 -27 3 -75 9 -105 12 -52 6 -427 13 -433 8z"/>
</g>
</svg>
